<?xml version="1.0" encoding="UTF-8" standalone="no"?>
<!DOCTYPE svg PUBLIC "-//W3C//DTD SVG 1.1//EN" "http://www.w3.org/Graphics/SVG/1.1/DTD/svg11.dtd">
<svg version="1.1" xmlns="http://www.w3.org/2000/svg" xmlns:xlink="http://www.w3.org/1999/xlink" preserveAspectRatio="xMidYMid meet" viewBox="0 0 489 489" width="489" height="489"><defs><path d="M323.85 244.52C414.25 154.12 464.47 103.9 474.51 93.86C491.16 77.21 491.16 50.22 474.51 33.6C472.51 31.59 456.44 15.52 454.43 13.52C437.78 -3.14 410.79 -3.14 394.17 13.52C384.13 23.56 333.91 73.78 243.52 164.17C153.12 73.76 102.9 23.53 92.86 13.48C76.21 -3.16 49.22 -3.16 32.6 13.48C30.59 15.49 14.5 31.56 12.48 33.57C-4.16 50.22 -4.16 77.21 12.48 93.83C22.53 103.88 72.76 154.1 163.17 244.52C72.78 334.91 22.56 385.13 12.52 395.17C-4.14 411.82 -4.14 438.81 12.52 455.43C14.52 457.44 30.59 473.51 32.6 475.51C49.25 492.16 76.24 492.16 92.86 475.51C102.9 465.47 153.12 415.25 243.52 324.85C333.91 415.25 384.13 465.47 394.17 475.51C410.82 492.16 437.81 492.16 454.43 475.51C456.44 473.51 472.51 457.44 474.51 455.43C491.16 438.78 491.16 411.79 474.51 395.17C454.43 375.08 404.21 324.86 323.85 244.52Z" id="f1m6og8GVu"></path></defs><g><g><g><use xlink:href="#f1m6og8GVu" opacity="1" fill="#ffffff" fill-opacity="1"></use><g><use xlink:href="#f1m6og8GVu" opacity="1" fill-opacity="0" stroke="#000000" stroke-width="1" stroke-opacity="0"></use></g></g></g></g></svg>