<?xml version="1.0" encoding="UTF-8" standalone="no"?>
<!DOCTYPE svg PUBLIC "-//W3C//DTD SVG 1.1//EN" "http://www.w3.org/Graphics/SVG/1.1/DTD/svg11.dtd">
<svg version="1.1" xmlns="http://www.w3.org/2000/svg" xmlns:xlink="http://www.w3.org/1999/xlink" preserveAspectRatio="xMidYMid meet" viewBox="0 0 200 200" width="200" height="200"><defs><path d="M146.96 186.01L52.11 186.01L52.09 185.49L47.56 58.95L151.51 58.95L146.96 186.01ZM53.18 184.93L145.89 184.93L150.37 60.02L48.7 60.02L53.18 184.93Z" id="az6mn72G"></path><path d="M74.74 82.39C74.74 82.39 74.74 82.39 74.74 82.39C74.74 134.72 74.74 163.79 74.74 169.61C74.74 169.61 74.74 169.61 74.74 169.61C70.41 169.61 68 169.61 67.52 169.61C67.52 169.61 67.52 169.61 67.52 169.61C67.52 117.28 67.52 88.21 67.52 82.39C67.52 82.39 67.52 82.39 67.52 82.39C71.85 82.39 74.26 82.39 74.74 82.39Z" id="ayHCO3x8Y"></path><path d="M103.14 82.39C103.14 82.39 103.14 82.39 103.14 82.39C103.14 134.72 103.14 163.79 103.14 169.61C103.14 169.61 103.14 169.61 103.14 169.61C98.81 169.61 96.41 169.61 95.93 169.61C95.93 169.61 95.93 169.61 95.93 169.61C95.93 117.28 95.93 88.21 95.93 82.39C95.93 82.39 95.93 82.39 95.93 82.39C100.26 82.39 102.66 82.39 103.14 82.39Z" id="e1lfVisu7T"></path><path d="M131.55 82.39C131.55 82.39 131.55 82.39 131.55 82.39C131.55 134.72 131.55 163.79 131.55 169.61C131.55 169.61 131.55 169.61 131.55 169.61C127.22 169.61 124.81 169.61 124.33 169.61C124.33 169.61 124.33 169.61 124.33 169.61C124.33 117.28 124.33 88.21 124.33 82.39C124.33 82.39 124.33 82.39 124.33 82.39C128.66 82.39 131.07 82.39 131.55 82.39Z" id="c4UlKDKHc"></path><path d="M26.52 22.91C25.2 22.01 24.88 20.23 25.81 18.94C26.73 17.65 28.55 17.34 29.87 18.24C29.87 18.24 29.87 18.24 29.87 18.24C30.93 18.96 39.34 24.72 40.39 25.44C41.71 26.35 42.03 28.13 41.1 29.42C40.18 30.71 38.36 31.02 37.04 30.11C34.94 28.67 27.58 23.63 26.52 22.91Z" id="bcEB4bse6"></path><path d="M28.44 41.38L171.56 41.38L171.56 58.95L28.44 58.95L28.44 41.38Z" id="acYjpcllR"></path><path d="M127.3 32.58C127.3 45.46 115.6 55.91 101.19 55.91C86.77 55.91 75.07 45.46 75.07 32.58C75.07 19.7 86.77 9.25 101.19 9.25C115.6 9.25 127.3 19.7 127.3 32.58Z" id="b8JE6BwZ0"></path></defs><g><g><g><use xlink:href="#az6mn72G" opacity="1" fill="#3f3d56" fill-opacity="1"></use><g><use xlink:href="#az6mn72G" opacity="1" fill-opacity="0" stroke="#3f3c56" stroke-width="5" stroke-opacity="1"></use></g></g><g><use xlink:href="#ayHCO3x8Y" opacity="1" fill="#3f3d56" fill-opacity="1"></use><g><use xlink:href="#ayHCO3x8Y" opacity="1" fill-opacity="0" stroke="#000000" stroke-width="1" stroke-opacity="0"></use></g></g><g><use xlink:href="#e1lfVisu7T" opacity="1" fill="#3f3d56" fill-opacity="1"></use><g><use xlink:href="#e1lfVisu7T" opacity="1" fill-opacity="0" stroke="#000000" stroke-width="1" stroke-opacity="0"></use></g></g><g><use xlink:href="#c4UlKDKHc" opacity="1" fill="#3f3d56" fill-opacity="1"></use><g><use xlink:href="#c4UlKDKHc" opacity="1" fill-opacity="0" stroke="#000000" stroke-width="1" stroke-opacity="0"></use></g></g><g><use xlink:href="#bcEB4bse6" opacity="1" fill="#ffffff" fill-opacity="1"></use><g><use xlink:href="#bcEB4bse6" opacity="1" fill-opacity="0" stroke="#000000" stroke-width="1" stroke-opacity="0"></use></g></g><g><use xlink:href="#acYjpcllR" opacity="1" fill="#3f3d56" fill-opacity="1"></use></g><g><use xlink:href="#b8JE6BwZ0" opacity="1" fill="#3f3d56" fill-opacity="1"></use></g></g></g></svg>