<?xml version="1.0" encoding="UTF-8" standalone="no"?>
<!DOCTYPE svg PUBLIC "-//W3C//DTD SVG 1.1//EN" "http://www.w3.org/Graphics/SVG/1.1/DTD/svg11.dtd">
<svg version="1.1" xmlns="http://www.w3.org/2000/svg" xmlns:xlink="http://www.w3.org/1999/xlink" preserveAspectRatio="xMidYMid meet" viewBox="44.32227761533147 33.06060606060589 176.5868132937594 166.826641044248" width="172.59" height="162.83"><defs><path d="M72.85 182.58C72.85 190.48 79.25 196.89 87.15 196.89C95.06 196.89 101.46 190.48 101.46 182.58C101.46 182.58 101.46 182.58 101.46 182.58C101.44 174.69 95.05 168.29 87.15 168.27C79.25 168.27 72.85 174.68 72.85 182.58ZM45.32 56L45.32 70.31L59.63 70.31L85.38 122.48C78.92 133 75.33 138.84 74.62 140.01C73.44 142.08 72.82 144.42 72.83 146.81C72.83 156.38 79.38 161.11 88.25 161.11C93.83 161.11 121.72 161.11 171.91 161.11L171.91 147.36C122.77 147.36 95.46 147.36 90 147.36C89.07 147.41 88.27 146.7 88.21 145.77C88.21 145.7 88.21 145.64 88.21 145.57C88.4 144.95 88.66 144.35 88.97 143.79C89.45 143.03 91.83 139.27 96.12 132.5C128.1 132.5 145.87 132.5 149.42 132.5C154.67 132.54 159.51 129.64 161.94 124.99C164.52 120.56 185.13 85.12 187.71 80.69C188.21 79.56 188.45 78.34 188.43 77.11C188.38 73.31 185.27 70.26 181.47 70.31C181.4 70.31 181.34 70.31 181.27 70.31C174.21 70.31 138.91 70.31 75.38 70.31L68.58 56L45.32 56ZM143.29 182.59C143.3 190.49 149.71 196.89 157.61 196.89C165.51 196.88 171.91 190.48 171.91 182.58C171.89 174.68 165.49 168.29 157.59 168.27C149.69 168.28 143.29 174.69 143.29 182.59Z" id="bFGJ87Ads"></path><path d="M217.91 65.88C217.91 83.44 203.65 97.7 186.09 97.7C168.53 97.7 154.27 83.44 154.27 65.88C154.27 48.32 168.53 34.06 186.09 34.06C203.65 34.06 217.91 48.32 217.91 65.88Z" id="b6jaVjmuGl"></path></defs><g><g><use xlink:href="#bFGJ87Ads" opacity="1" fill="#6c63ff" fill-opacity="1"></use><g><use xlink:href="#bFGJ87Ads" opacity="1" fill-opacity="0" stroke="#000000" stroke-width="1" stroke-opacity="0"></use></g></g><g><use xlink:href="#b6jaVjmuGl" opacity="1" fill="#e91903" fill-opacity="1"></use></g></g></svg>