<?xml version="1.0" encoding="UTF-8" standalone="no"?>
<!DOCTYPE svg PUBLIC "-//W3C//DTD SVG 1.1//EN" "http://www.w3.org/Graphics/SVG/1.1/DTD/svg11.dtd">
<svg version="1.1" xmlns="http://www.w3.org/2000/svg" xmlns:xlink="http://www.w3.org/1999/xlink" preserveAspectRatio="xMidYMid meet" viewBox="0 0 71 71" width="71" height="71"><defs><path d="M52.09 53.32C54.53 50.83 56.76 47.28 58.88 43.27C59.6 43.81 65.4 48.1 66.12 48.63C63.23 52.07 60.78 55.45 59.33 58.68C57.89 57.61 52.82 53.86 52.09 53.32Z" id="c27dBg6Bmv"></path><path d="M59.34 48.5C58.16 48.5 57.2 49.5 57.2 50.73C57.2 51.97 58.16 52.97 59.34 52.97C60.52 52.97 61.47 51.97 61.47 50.73C61.47 49.5 60.52 48.5 59.34 48.5Z" id="bbezpmtNj"></path><path d="M23.6 34.21C23.54 34.21 23.49 34.26 23.49 34.32C23.49 34.32 23.49 34.32 23.49 34.32C23.49 34.35 23.49 34.65 23.49 34.68C23.49 34.74 23.54 34.79 23.6 34.79C23.6 34.79 23.6 34.79 23.6 34.79C23.61 34.79 23.65 34.79 23.73 34.79L23.73 35.34L24.26 35.34L24.26 34.79C24.34 34.79 24.39 34.79 24.39 34.79C24.45 34.79 24.5 34.74 24.5 34.68C24.5 34.65 24.5 34.35 24.5 34.32C24.5 34.26 24.45 34.21 24.39 34.21C24.39 34.21 23.68 34.21 23.6 34.21Z" id="c6SPY3cBZu"></path><path d="M24.48 35.01C24.48 34.97 24.45 34.93 24.41 34.92C24.41 34.91 24.41 34.86 24.41 34.77L23.57 34.77L23.57 34.92C23.57 34.92 23.56 34.92 23.56 34.92C23.51 34.92 23.48 34.96 23.48 35.01C23.48 35.01 23.48 35.01 23.48 35.01C23.48 35.02 23.48 35.02 23.48 35.02C23.55 35.94 23.32 36.86 22.81 37.62C22.78 37.66 22.76 37.71 22.76 37.77C22.77 38.06 22.85 40.44 22.85 40.74C22.86 40.88 22.97 40.99 23.1 40.99C23.29 40.99 24.81 40.99 25 40.99C25.13 40.99 25.24 40.88 25.24 40.74C25.24 40.45 25.27 38.14 25.28 37.85C25.28 37.74 25.25 37.64 25.19 37.55C24.7 36.81 24.46 35.92 24.48 35.01Z" id="bcKTlVLO"></path><path d="M24.23 34.33C24.23 34.46 24.13 34.56 24 34.56C23.88 34.56 23.77 34.46 23.77 34.33" id="g6qiwxyXL"></path><path d="M24.82 38.12C24.82 38.12 24.82 38.12 24.82 38.12C24.82 38.8 24.82 39.17 24.82 39.24C24.82 39.24 24.82 39.24 24.82 39.24C23.86 39.24 23.32 39.24 23.22 39.24C23.22 39.24 23.22 39.24 23.22 39.24C23.22 38.57 23.22 38.2 23.22 38.12C23.22 38.12 23.22 38.12 23.22 38.12C24.18 38.12 24.71 38.12 24.82 38.12Z" id="axgFdWw0N"></path><path d="M48.07 45.82C47.96 45.82 47.87 45.92 47.87 46.03C47.87 46.1 47.87 46.65 47.87 46.71C47.87 46.83 47.96 46.92 48.07 46.92C48.08 46.92 48.16 46.92 48.31 46.92L48.31 47.95L49.31 47.95L49.31 46.92C49.46 46.92 49.54 46.92 49.55 46.92C49.66 46.92 49.75 46.83 49.75 46.71C49.75 46.65 49.75 46.1 49.75 46.03C49.75 45.92 49.66 45.82 49.55 45.82C49.55 45.82 48.22 45.82 48.07 45.82Z" id="bGAXLbm5r"></path><path d="M49.71 47.33C49.72 47.25 49.66 47.18 49.59 47.17C49.59 47.15 49.59 47.05 49.59 46.87L48.02 46.87L48.02 47.16C48 47.16 48 47.16 47.99 47.16C47.91 47.16 47.83 47.24 47.83 47.33C47.83 47.33 47.83 47.33 47.83 47.33C47.83 47.34 47.83 47.34 47.83 47.34C48.02 50.05 46.71 51.72 46.58 52.2C46.52 52.29 46.5 52.39 46.5 52.49C46.52 53.04 46.65 57.5 46.67 58.05C46.68 58.31 46.88 58.52 47.13 58.52C47.48 58.52 50.33 58.52 50.68 58.52C50.93 58.52 51.13 58.31 51.14 58.04C51.15 57.5 51.2 53.18 51.21 52.64C51.21 52.44 51.15 52.25 51.05 52.08C50.13 50.69 49.67 49.02 49.71 47.33Z" id="cmf9uXt1f"></path><path d="M49.24 46.05C49.24 46.29 49.05 46.49 48.82 46.49C48.58 46.49 48.39 46.29 48.39 46.05" id="aXlRkZKP"></path><path d="M47.39 53.93C47.21 53.93 47.07 54.08 47.07 54.26C47.07 54.28 47.07 54.3 47.07 54.32C47.11 54.53 47.26 55.59 47.54 57.5L50.23 57.5C50.57 55.59 50.76 54.54 50.79 54.33C50.83 54.15 50.71 53.97 50.54 53.94C50.52 53.93 50.5 53.93 50.48 53.93C49.86 53.93 47.7 53.93 47.39 53.93Z" id="dXH0JNIW"></path><path d="M36.44 58.67C37.06 55.16 36.91 50.92 36.44 46.36C37.32 46.36 44.42 46.36 45.31 46.36C44.84 50.92 44.7 55.16 45.31 58.67C43.53 58.67 37.32 58.67 36.44 58.67Z" id="b1yyYsFJEx"></path><path d="M40.93 49.95C39.75 49.95 38.79 50.95 38.79 52.18C38.79 53.42 39.75 54.42 40.93 54.42C42.11 54.42 43.06 53.42 43.06 52.18C43.06 50.95 42.11 49.95 40.93 49.95Z" id="aHQu3eeB7"></path><path d="M11.01 19.74L12.28 16.52L10.02 15.19L9.02 19.93L9.02 19.93L11.01 19.74Z" id="e1oEYsxnzn"></path><path d="M27.3 28.78C27.53 28.18 27.25 27.49 26.67 27.25C26.56 27.2 26.44 27.18 26.32 27.17C26.12 27.16 25.09 27.09 23.23 26.98L22.78 28.56C24.69 29.11 25.75 29.42 25.96 29.48C26.51 29.63 27.09 29.33 27.3 28.78C27.3 28.78 27.3 28.78 27.3 28.78Z" id="cqAZDI396"></path><path d="M23.98 29.5L23.94 26.53L17.08 25.38C13.9 21.57 12.14 19.45 11.79 19.03C11.22 18.34 10.25 18.21 9.53 18.7C9.53 18.7 9.53 18.7 9.53 18.7C8.73 19.25 8.51 20.38 9.03 21.22C9.09 21.31 9.15 21.39 9.23 21.47C9.52 21.84 10.97 23.72 13.59 27.09L23.98 29.5Z" id="apfVU1fdV"></path><path d="M7.48 62.96L9.29 62.96L13.78 41.71L18.44 48.27L21.15 62.49L22.87 62.49L22.51 47.23L16.44 30.93C12.86 30.93 10.87 30.93 10.47 30.93C8.84 34.02 7.56 37.21 9.02 40.5C8.82 43.5 8.3 50.98 7.48 62.96Z" id="b8RAcs7DM"></path><path d="M20.04 64.25C19.96 64.52 20.1 64.79 20.35 64.87C20.37 64.88 20.39 64.89 20.41 64.89C20.85 64.97 24.4 65.63 24.84 65.71C25.2 65.78 25.56 65.56 25.67 65.19C25.67 65.19 25.67 65.19 25.67 65.19C25.77 64.84 25.63 64.46 25.31 64.29C24.34 63.76 23.5 63 22.87 62.06C22.38 62.54 21.84 62.49 21.26 62.14C21.22 62.15 21.02 62.18 20.65 62.22C20.33 63.31 20.12 63.98 20.04 64.25Z" id="b1tb7k9t6y"></path><path d="M6.64 64.25C6.57 64.52 6.71 64.79 6.95 64.87C6.97 64.88 6.99 64.89 7.01 64.89C7.46 64.97 11 65.63 11.44 65.71C11.81 65.78 12.16 65.56 12.27 65.19C12.27 65.19 12.27 65.19 12.27 65.19C12.38 64.84 12.23 64.46 11.92 64.29C10.94 63.76 10.1 63 9.47 62.06C8.99 62.54 8.44 62.49 7.86 62.14C7.82 62.15 7.62 62.18 7.25 62.22C6.93 63.31 6.73 63.98 6.64 64.25Z" id="a4T9Gr2Uu9"></path><path d="M12.33 12.4C10.93 12.4 9.79 13.59 9.79 15.05C9.79 16.52 10.93 17.71 12.33 17.71C13.73 17.71 14.86 16.52 14.86 15.05C14.86 13.59 13.73 12.4 12.33 12.4Z" id="b2vVoCAWKg"></path><path d="M16.67 31.45C15.51 27.61 14.86 25.48 14.73 25.05C15.94 23.03 14.72 21.01 13 18.99C12.91 18.92 12.46 18.61 11.65 18.04L9.47 17.85C9.47 17.85 9.47 17.85 9.47 17.85C8.53 18.9 8.02 20.3 8.04 21.74C8.08 24.83 8.6 28.19 10.06 31.64C10.94 31.61 13.15 31.55 16.67 31.45Z" id="aCD7115uT"></path><path d="M25.25 35.94C25.68 35.48 25.68 34.74 25.25 34.28C25.16 34.19 25.06 34.12 24.95 34.06C24.77 33.96 23.85 33.48 22.18 32.61L21.17 33.88C22.72 35.17 23.58 35.89 23.75 36.03C24.2 36.4 24.84 36.37 25.25 35.94C25.25 35.94 25.25 35.94 25.25 35.94Z" id="a6JEF3eb6l"></path><path d="M21.92 35.24L23.01 32.49L17.12 28.61C15.64 23.8 14.81 21.12 14.65 20.59C14.38 19.72 13.55 19.2 12.69 19.36C12.69 19.36 12.69 19.36 12.69 19.36C11.75 19.54 11.13 20.48 11.29 21.47C11.31 21.57 11.34 21.68 11.38 21.78C11.5 22.24 12.14 24.57 13.28 28.75L21.92 35.24Z" id="b1vJx5rME"></path><path d="M9.61 17.33C10.15 17.79 10.87 17.77 11.15 17.14C11.43 16.49 12.41 14.97 14.14 14.01C16.43 12.73 13.32 10.55 11.15 10.88C9.52 11.13 8.16 12.28 8.16 14.01C8.16 15.04 8.8 16.64 9.61 17.33Z" id="d1cStvSpQ2"></path><path d="M10.11 8.14C10.15 8.14 10.2 8.13 10.24 8.13C11.24 8.13 12.05 8.98 12.05 10.03C12.05 11.08 11.24 11.92 10.24 11.92C10.2 11.92 10.15 11.92 10.11 11.92C11.05 11.84 11.78 11.02 11.78 10.03C11.78 9.04 11.05 8.21 10.11 8.14Z" id="acu1mVNv8G"></path><path d="M12.78 15.43C12.78 15.75 12.6 16 12.37 16C12.15 16 11.96 15.75 11.96 15.43C11.96 15.12 12.15 14.86 12.37 14.86C12.6 14.86 12.78 15.12 12.78 15.43Z" id="ahZT7yCyv"></path><path d="M35.48 59.49L29.52 29.95L24.42 29.95L24.42 28.62L30.54 28.62L36.51 58.16L63.67 58.16L63.67 59.49L63.67 59.49L35.48 59.49Z" id="ca4h1OihV3"></path><path d="M39.62 59.2C38.12 59.2 36.9 60.47 36.9 62.04C36.9 63.61 38.12 64.88 39.62 64.88C41.11 64.88 42.33 63.61 42.33 62.04C42.33 60.47 41.11 59.2 39.62 59.2Z" id="b1Cm69cKZC"></path><path d="M59.87 59.2C58.37 59.2 57.16 60.47 57.16 62.04C57.16 63.61 58.37 64.88 59.87 64.88C61.37 64.88 62.58 63.61 62.58 62.04C62.58 60.47 61.37 59.2 59.87 59.2Z" id="f4CcghyGFi"></path><path d="M35.73 58.86L30.9 33.83C52.98 33.83 65.24 33.83 67.7 33.83C68.41 33.83 69 34.44 69 35.19C69 35.26 68.99 35.33 68.98 35.4C68.53 37.63 64.89 55.48 64.44 57.71C64.34 58.38 63.8 58.87 63.16 58.86C59.5 58.86 50.36 58.86 35.73 58.86ZM36.03 58.48C52.31 58.48 61.35 58.48 63.16 58.48C63.62 58.49 64.01 58.13 64.08 57.65C64.54 55.42 68.17 37.57 68.62 35.34C68.7 34.81 68.35 34.3 67.84 34.22C67.79 34.21 67.74 34.21 67.7 34.21C65.27 34.21 53.15 34.21 31.33 34.21L36.03 58.48Z" id="keBFKh2F1"></path><path d="M37.9 34.05L38.25 33.99L41.42 58.72L41.06 58.78L41.06 58.78L37.9 34.05Z" id="bompyaYnv"></path><path d="M58.33 58.53L61.4 33.99L61.76 34.05L58.68 58.59L58.68 58.59L58.33 58.53Z" id="a5osdz3q9O"></path><path d="M50.29 34.02C50.29 34.02 50.29 34.02 50.29 34.02C50.29 48.86 50.29 57.1 50.29 58.75C50.29 58.75 50.29 58.75 50.29 58.75C50.07 58.75 49.95 58.75 49.93 58.75C49.93 58.75 49.93 58.75 49.93 58.75C49.93 43.91 49.93 35.67 49.93 34.02C49.93 34.02 49.93 34.02 49.93 34.02C50.14 34.02 50.26 34.02 50.29 34.02Z" id="bc1wpmv5j"></path><path d="M32.74 40.65C32.74 40.65 32.74 40.65 32.74 40.65C53.75 40.7 65.42 40.73 67.76 40.73C67.76 40.73 67.76 40.73 67.76 40.73C67.76 40.96 67.76 41.09 67.76 41.11C67.76 41.11 67.76 41.11 67.76 41.11C46.75 41.06 35.08 41.03 32.74 41.02C32.74 41.02 32.74 41.02 32.74 41.02C32.74 40.8 32.74 40.67 32.74 40.65Z" id="cmaP4VG8a"></path><path d="M65.29 52.34C65.29 52.34 65.29 52.34 65.29 52.34C65.29 52.57 65.29 52.7 65.29 52.72C65.29 52.72 65.29 52.72 65.29 52.72C46.83 52.86 36.58 52.93 34.53 52.94C34.53 52.94 34.53 52.94 34.53 52.94C34.53 52.72 34.53 52.59 34.53 52.57C34.53 52.57 34.53 52.57 34.53 52.57C52.98 52.43 63.24 52.36 65.29 52.34Z" id="a1OC9zEN2h"></path><path d="M26.96 29.1C26.96 29.72 26.06 30.23 24.97 30.23C23.87 30.23 22.98 29.72 22.98 29.1C22.98 28.47 23.87 27.96 24.97 27.96C26.06 27.96 26.96 28.47 26.96 29.1Z" id="g1kgLaiwN"></path><path d="M9.7 8.8C8.7 8.8 7.89 9.65 7.89 10.69C7.89 11.74 8.7 12.59 9.7 12.59C10.7 12.59 11.51 11.74 11.51 10.69C11.51 9.65 10.7 8.8 9.7 8.8Z" id="b27abDgMm"></path></defs><g><g><g><use xlink:href="#c27dBg6Bmv" opacity="1" fill="#000000" fill-opacity="1"></use><g><use xlink:href="#c27dBg6Bmv" opacity="1" fill-opacity="0" stroke="#000000" stroke-width="1" stroke-opacity="0"></use></g></g><g><use xlink:href="#bbezpmtNj" opacity="1" fill="#ffffff" fill-opacity="1"></use><g><use xlink:href="#bbezpmtNj" opacity="1" fill-opacity="0" stroke="#000000" stroke-width="1" stroke-opacity="0"></use></g></g><g><use xlink:href="#c6SPY3cBZu" opacity="1" fill="#e6e6e6" fill-opacity="1"></use><g><use xlink:href="#c6SPY3cBZu" opacity="1" fill-opacity="0" stroke="#000000" stroke-width="1" stroke-opacity="0"></use></g></g><g><use xlink:href="#bcKTlVLO" opacity="1" fill="#000000" fill-opacity="1"></use><g><use xlink:href="#bcKTlVLO" opacity="1" fill-opacity="0" stroke="#000000" stroke-width="1" stroke-opacity="0"></use></g></g><g><use xlink:href="#g6qiwxyXL" opacity="1" fill="#000000" fill-opacity="1"></use><g><use xlink:href="#g6qiwxyXL" opacity="1" fill-opacity="0" stroke="#000000" stroke-width="1" stroke-opacity="0"></use></g></g><g><use xlink:href="#axgFdWw0N" opacity="1" fill="#ffffff" fill-opacity="1"></use><g><use xlink:href="#axgFdWw0N" opacity="1" fill-opacity="0" stroke="#000000" stroke-width="1" stroke-opacity="0"></use></g></g><g><use xlink:href="#bGAXLbm5r" opacity="1" fill="#e6e6e6" fill-opacity="1"></use><g><use xlink:href="#bGAXLbm5r" opacity="1" fill-opacity="0" stroke="#000000" stroke-width="1" stroke-opacity="0"></use></g></g><g><use xlink:href="#cmf9uXt1f" opacity="1" fill="#000000" fill-opacity="1"></use><g><use xlink:href="#cmf9uXt1f" opacity="1" fill-opacity="0" stroke="#000000" stroke-width="1" stroke-opacity="0"></use></g></g><g><use xlink:href="#aXlRkZKP" opacity="1" fill="#000000" fill-opacity="1"></use><g><use xlink:href="#aXlRkZKP" opacity="1" fill-opacity="0" stroke="#000000" stroke-width="1" stroke-opacity="0"></use></g></g><g><use xlink:href="#dXH0JNIW" opacity="1" fill="#ffffff" fill-opacity="1"></use><g><use xlink:href="#dXH0JNIW" opacity="1" fill-opacity="0" stroke="#000000" stroke-width="1" stroke-opacity="0"></use></g></g><g><use xlink:href="#b1yyYsFJEx" opacity="1" fill="#000000" fill-opacity="1"></use><g><use xlink:href="#b1yyYsFJEx" opacity="1" fill-opacity="0" stroke="#000000" stroke-width="1" stroke-opacity="0"></use></g></g><g><use xlink:href="#aHQu3eeB7" opacity="1" fill="#ffffff" fill-opacity="1"></use><g><use xlink:href="#aHQu3eeB7" opacity="1" fill-opacity="0" stroke="#000000" stroke-width="1" stroke-opacity="0"></use></g></g><g><use xlink:href="#e1oEYsxnzn" opacity="1" fill="#ffb8b8" fill-opacity="1"></use><g><use xlink:href="#e1oEYsxnzn" opacity="1" fill-opacity="0" stroke="#000000" stroke-width="1" stroke-opacity="0"></use></g></g><g><use xlink:href="#cqAZDI396" opacity="1" fill="#ffb8b8" fill-opacity="1"></use><g><use xlink:href="#cqAZDI396" opacity="1" fill-opacity="0" stroke="#000000" stroke-width="1" stroke-opacity="0"></use></g></g><g><use xlink:href="#apfVU1fdV" opacity="1" fill="#575a89" fill-opacity="1"></use><g><use xlink:href="#apfVU1fdV" opacity="1" fill-opacity="0" stroke="#000000" stroke-width="1" stroke-opacity="0"></use></g></g><g><use xlink:href="#b8RAcs7DM" opacity="1" fill="#2f2e41" fill-opacity="1"></use><g><use xlink:href="#b8RAcs7DM" opacity="1" fill-opacity="0" stroke="#000000" stroke-width="1" stroke-opacity="0"></use></g></g><g><use xlink:href="#b1tb7k9t6y" opacity="1" fill="#2f2e41" fill-opacity="1"></use><g><use xlink:href="#b1tb7k9t6y" opacity="1" fill-opacity="0" stroke="#000000" stroke-width="1" stroke-opacity="0"></use></g></g><g><use xlink:href="#a4T9Gr2Uu9" opacity="1" fill="#2f2e41" fill-opacity="1"></use><g><use xlink:href="#a4T9Gr2Uu9" opacity="1" fill-opacity="0" stroke="#000000" stroke-width="1" stroke-opacity="0"></use></g></g><g><use xlink:href="#b2vVoCAWKg" opacity="1" fill="#ffb8b8" fill-opacity="1"></use><g><use xlink:href="#b2vVoCAWKg" opacity="1" fill-opacity="0" stroke="#000000" stroke-width="1" stroke-opacity="0"></use></g></g><g><use xlink:href="#aCD7115uT" opacity="1" fill="#575a89" fill-opacity="1"></use><g><use xlink:href="#aCD7115uT" opacity="1" fill-opacity="0" stroke="#000000" stroke-width="1" stroke-opacity="0"></use></g></g><g><use xlink:href="#a6JEF3eb6l" opacity="1" fill="#ffb8b8" fill-opacity="1"></use><g><use xlink:href="#a6JEF3eb6l" opacity="1" fill-opacity="0" stroke="#000000" stroke-width="1" stroke-opacity="0"></use></g></g><g><use xlink:href="#b1vJx5rME" opacity="1" fill="#575a89" fill-opacity="1"></use><g><use xlink:href="#b1vJx5rME" opacity="1" fill-opacity="0" stroke="#000000" stroke-width="1" stroke-opacity="0"></use></g></g><g><use xlink:href="#d1cStvSpQ2" opacity="1" fill="#2f2e41" fill-opacity="1"></use><g><use xlink:href="#d1cStvSpQ2" opacity="1" fill-opacity="0" stroke="#000000" stroke-width="1" stroke-opacity="0"></use></g></g><g><use xlink:href="#acu1mVNv8G" opacity="1" fill="#2f2e41" fill-opacity="1"></use><g><use xlink:href="#acu1mVNv8G" opacity="1" fill-opacity="0" stroke="#000000" stroke-width="1" stroke-opacity="0"></use></g></g><g><use xlink:href="#ahZT7yCyv" opacity="1" fill="#ffb8b8" fill-opacity="1"></use><g><use xlink:href="#ahZT7yCyv" opacity="1" fill-opacity="0" stroke="#000000" stroke-width="1" stroke-opacity="0"></use></g></g><g><use xlink:href="#ca4h1OihV3" opacity="1" fill="#3f3d56" fill-opacity="1"></use><g><use xlink:href="#ca4h1OihV3" opacity="1" fill-opacity="0" stroke="#000000" stroke-width="1" stroke-opacity="0"></use></g></g><g><use xlink:href="#b1Cm69cKZC" opacity="1" fill="#3f3d56" fill-opacity="1"></use><g><use xlink:href="#b1Cm69cKZC" opacity="1" fill-opacity="0" stroke="#000000" stroke-width="1" stroke-opacity="0"></use></g></g><g><use xlink:href="#f4CcghyGFi" opacity="1" fill="#3f3d56" fill-opacity="1"></use><g><use xlink:href="#f4CcghyGFi" opacity="1" fill-opacity="0" stroke="#000000" stroke-width="1" stroke-opacity="0"></use></g></g><g><use xlink:href="#keBFKh2F1" opacity="1" fill="#3f3d56" fill-opacity="1"></use><g><use xlink:href="#keBFKh2F1" opacity="1" fill-opacity="0" stroke="#000000" stroke-width="1" stroke-opacity="0"></use></g></g><g><use xlink:href="#bompyaYnv" opacity="1" fill="#3f3d56" fill-opacity="1"></use><g><use xlink:href="#bompyaYnv" opacity="1" fill-opacity="0" stroke="#000000" stroke-width="1" stroke-opacity="0"></use></g></g><g><use xlink:href="#a5osdz3q9O" opacity="1" fill="#3f3d56" fill-opacity="1"></use><g><use xlink:href="#a5osdz3q9O" opacity="1" fill-opacity="0" stroke="#000000" stroke-width="1" stroke-opacity="0"></use></g></g><g><use xlink:href="#bc1wpmv5j" opacity="1" fill="#3f3d56" fill-opacity="1"></use><g><use xlink:href="#bc1wpmv5j" opacity="1" fill-opacity="0" stroke="#000000" stroke-width="1" stroke-opacity="0"></use></g></g><g><use xlink:href="#cmaP4VG8a" opacity="1" fill="#3f3d56" fill-opacity="1"></use><g><use xlink:href="#cmaP4VG8a" opacity="1" fill-opacity="0" stroke="#000000" stroke-width="1" stroke-opacity="0"></use></g></g><g><use xlink:href="#a1OC9zEN2h" opacity="1" fill="#3f3d56" fill-opacity="1"></use><g><use xlink:href="#a1OC9zEN2h" opacity="1" fill-opacity="0" stroke="#000000" stroke-width="1" stroke-opacity="0"></use></g></g><g><use xlink:href="#g1kgLaiwN" opacity="1" fill="#3f3d56" fill-opacity="1"></use><g><use xlink:href="#g1kgLaiwN" opacity="1" fill-opacity="0" stroke="#000000" stroke-width="1" stroke-opacity="0"></use></g></g><g><use xlink:href="#b27abDgMm" opacity="1" fill="#2f2e41" fill-opacity="1"></use><g><use xlink:href="#b27abDgMm" opacity="1" fill-opacity="0" stroke="#000000" stroke-width="1" stroke-opacity="0"></use></g></g></g></g></svg>