<?xml version="1.0" encoding="UTF-8" standalone="no"?>
<!DOCTYPE svg PUBLIC "-//W3C//DTD SVG 1.1//EN" "http://www.w3.org/Graphics/SVG/1.1/DTD/svg11.dtd">
<svg version="1.1" xmlns="http://www.w3.org/2000/svg" xmlns:xlink="http://www.w3.org/1999/xlink" preserveAspectRatio="xMidYMid meet" viewBox="0 0 512 512" width="512" height="512"><defs><path d="M47.12 64.27C21.14 64.27 0 85.4 0 111.42C0 137.4 21.14 158.53 47.12 158.53C88.89 158.53 423.11 158.53 464.88 158.53C490.86 158.53 512 137.4 512 111.42C512 85.4 490.86 64.27 464.88 64.27C381.33 64.27 88.89 64.27 47.12 64.27Z" id="cfSv42slT"></path><path d="M47.12 208.87C21.14 208.87 0 230 0 256.02C0 282 21.14 303.13 47.12 303.13C88.89 303.13 423.11 303.13 464.88 303.13C490.86 303.13 512 282 512 256.02C512 230 490.86 208.87 464.88 208.87C381.33 208.87 88.89 208.87 47.12 208.87Z" id="d1tUJb3Blz"></path><path d="M47.12 353.47C21.14 353.47 0 374.6 0 400.62C0 426.6 21.14 447.73 47.12 447.73C88.89 447.73 423.11 447.73 464.88 447.73C490.86 447.73 512 426.6 512 400.62C512 374.6 490.86 353.47 464.88 353.47C381.33 353.47 88.89 353.47 47.12 353.47Z" id="hdtYKpeSc"></path></defs><g><g><g><use xlink:href="#cfSv42slT" opacity="1" fill="#ffffff" fill-opacity="1"></use><g><use xlink:href="#cfSv42slT" opacity="1" fill-opacity="0" stroke="#000000" stroke-width="1" stroke-opacity="0"></use></g></g><g><use xlink:href="#d1tUJb3Blz" opacity="1" fill="#ffffff" fill-opacity="1"></use><g><use xlink:href="#d1tUJb3Blz" opacity="1" fill-opacity="0" stroke="#000000" stroke-width="1" stroke-opacity="0"></use></g></g><g><use xlink:href="#hdtYKpeSc" opacity="1" fill="#ffffff" fill-opacity="1"></use><g><use xlink:href="#hdtYKpeSc" opacity="1" fill-opacity="0" stroke="#000000" stroke-width="1" stroke-opacity="0"></use></g></g></g></g></svg>