<?xml version="1.0" encoding="UTF-8" standalone="no"?>
<!DOCTYPE svg PUBLIC "-//W3C//DTD SVG 1.1//EN" "http://www.w3.org/Graphics/SVG/1.1/DTD/svg11.dtd">
<svg version="1.1" xmlns="http://www.w3.org/2000/svg" xmlns:xlink="http://www.w3.org/1999/xlink" preserveAspectRatio="xMidYMid meet" viewBox="86.77777777777786 70.2761111111111 178.44444444444437 168.44444444444457" width="174.44" height="164.44"><defs><path d="M198.5 71.29L198.61 71.3L198.73 71.31L198.84 71.33L198.96 71.36L199.07 71.38L199.18 71.42L199.29 71.45L199.39 71.49L199.49 71.54L199.59 71.58L199.69 71.63L199.79 71.69L199.88 71.74L199.98 71.81L200.06 71.87L200.15 71.94L200.23 72.01L200.31 72.08L200.39 72.16L200.47 72.23L200.54 72.31L200.61 72.4L200.67 72.48L200.73 72.57L200.79 72.66L200.84 72.76L200.89 72.85L200.94 72.95L200.98 73.05L201.02 73.15L201.05 73.25L201.08 73.36L201.11 73.46L201.13 73.57L201.15 73.68L201.16 73.79L201.16 73.9L201.17 74.02L201.17 128.83L259.31 128.83L259.43 128.83L259.55 128.84L259.67 128.85L259.79 128.87L259.9 128.89L260.01 128.91L260.12 128.94L260.23 128.97L260.34 129.01L260.45 129.05L260.55 129.09L260.65 129.14L260.75 129.19L260.85 129.24L260.94 129.3L261.03 129.36L261.12 129.42L261.21 129.49L261.29 129.56L261.37 129.63L261.45 129.71L261.52 129.79L261.59 129.87L261.66 129.95L261.73 130.04L261.79 130.13L261.84 130.22L261.9 130.31L261.95 130.41L261.99 130.51L262.04 130.61L262.07 130.71L262.11 130.81L262.14 130.91L262.16 131.02L262.18 131.13L262.2 131.24L262.21 131.35L262.22 131.46L262.22 131.57L262.22 175.42L262.22 175.54L262.21 175.65L262.2 175.76L262.18 175.87L262.16 175.98L262.14 176.08L262.11 176.19L262.07 176.29L262.04 176.39L261.99 176.49L261.95 176.59L261.9 176.68L261.84 176.78L261.79 176.87L261.73 176.96L261.66 177.04L261.59 177.13L261.52 177.21L261.45 177.29L261.37 177.36L261.29 177.43L261.21 177.5L261.12 177.57L261.03 177.64L260.94 177.7L260.85 177.75L260.75 177.81L260.65 177.86L260.55 177.91L260.45 177.95L260.34 177.99L260.23 178.03L260.12 178.06L260.01 178.09L259.9 178.11L259.79 178.13L259.67 178.14L259.55 178.16L259.43 178.16L259.31 178.17L201.17 178.17L201.17 232.98L201.16 233.09L201.16 233.2L201.15 233.31L201.13 233.42L201.11 233.53L201.08 233.64L201.05 233.74L201.02 233.85L200.98 233.95L200.94 234.05L200.89 234.14L200.84 234.24L200.79 234.33L200.73 234.42L200.67 234.51L200.61 234.6L200.54 234.68L200.47 234.76L200.39 234.84L200.31 234.92L200.23 234.99L200.15 235.06L200.06 235.13L199.98 235.19L199.88 235.25L199.79 235.31L199.69 235.36L199.59 235.41L199.49 235.46L199.39 235.51L199.29 235.54L199.18 235.58L199.07 235.61L198.96 235.64L198.84 235.66L198.73 235.68L198.61 235.7L198.5 235.71L198.38 235.72L198.26 235.72L151.74 235.72L151.62 235.72L151.5 235.71L151.39 235.7L151.27 235.68L151.16 235.66L151.04 235.64L150.93 235.61L150.82 235.58L150.71 235.54L150.61 235.51L150.51 235.46L150.41 235.41L150.31 235.36L150.21 235.31L150.12 235.25L150.02 235.19L149.94 235.13L149.85 235.06L149.77 234.99L149.69 234.92L149.61 234.84L149.53 234.76L149.46 234.68L149.39 234.6L149.33 234.51L149.27 234.42L149.21 234.33L149.16 234.24L149.11 234.14L149.06 234.05L149.02 233.95L148.98 233.85L148.95 233.74L148.92 233.64L148.89 233.53L148.87 233.42L148.85 233.31L148.84 233.2L148.84 233.09L148.83 232.98L148.83 178.17L90.69 178.17L90.57 178.16L90.45 178.16L90.33 178.14L90.21 178.13L90.1 178.11L89.99 178.09L89.88 178.06L89.77 178.03L89.66 177.99L89.55 177.95L89.45 177.91L89.35 177.86L89.25 177.81L89.15 177.75L89.06 177.7L88.97 177.64L88.88 177.57L88.79 177.5L88.71 177.43L88.63 177.36L88.55 177.29L88.48 177.21L88.41 177.13L88.34 177.04L88.27 176.96L88.21 176.87L88.16 176.78L88.1 176.68L88.05 176.59L88.01 176.49L87.96 176.39L87.93 176.29L87.89 176.19L87.86 176.08L87.84 175.98L87.82 175.87L87.8 175.76L87.79 175.65L87.78 175.54L87.78 175.42L87.78 131.57L87.78 131.46L87.79 131.35L87.8 131.24L87.82 131.13L87.84 131.02L87.86 130.91L87.89 130.81L87.93 130.71L87.96 130.61L88.01 130.51L88.05 130.41L88.1 130.31L88.16 130.22L88.21 130.13L88.27 130.04L88.34 129.95L88.41 129.87L88.48 129.79L88.55 129.71L88.63 129.63L88.71 129.56L88.79 129.49L88.88 129.42L88.97 129.36L89.06 129.3L89.15 129.24L89.25 129.19L89.35 129.14L89.45 129.09L89.55 129.05L89.66 129.01L89.77 128.97L89.88 128.94L89.99 128.91L90.1 128.89L90.21 128.87L90.33 128.85L90.45 128.84L90.57 128.83L90.69 128.83L148.83 128.83L148.83 74.02L148.84 73.9L148.84 73.79L148.85 73.68L148.87 73.57L148.89 73.46L148.92 73.36L148.95 73.25L148.98 73.15L149.02 73.05L149.06 72.95L149.11 72.85L149.16 72.76L149.21 72.66L149.27 72.57L149.33 72.48L149.39 72.4L149.46 72.31L149.53 72.23L149.61 72.16L149.69 72.08L149.77 72.01L149.85 71.94L149.94 71.87L150.02 71.81L150.12 71.74L150.21 71.69L150.31 71.63L150.41 71.58L150.51 71.54L150.61 71.49L150.71 71.45L150.82 71.42L150.93 71.38L151.04 71.36L151.16 71.33L151.27 71.31L151.39 71.3L151.5 71.29L151.62 71.28L151.74 71.28L198.26 71.28L198.38 71.28L198.5 71.29Z" id="a9FomLRV8"></path></defs><g><g><use xlink:href="#a9FomLRV8" opacity="1" fill="#000000" fill-opacity="1"></use></g></g></svg>